Coordinates
version=1
nRows=8
nColumns=36
inDegrees=yes

Units are S.I. units (second, meters, Newtons, ...)
If the header above contains a line with 'inDegrees', this indicates whether rotational values are in degrees (yes) or radians (no).

endheader
time	pelvis_tilt	pelvis_list	pelvis_rotation	pelvis_tx	pelvis_ty	pelvis_tz	hip_flexion_r	hip_adduction_r	hip_rotation_r	knee_angle_r	knee_angle_r_beta	ankle_angle_r	subtalar_angle_r	mtp_angle_r	hip_flexion_l	hip_adduction_l	hip_rotation_l	knee_angle_l	knee_angle_l_beta	ankle_angle_l	subtalar_angle_l	mtp_angle_l	lumbar_extension	lumbar_bending	lumbar_rotation	arm_flex_r	arm_add_r	arm_rot_r	elbow_flex_r	pro_sup_r	arm_flex_l	arm_add_l	arm_rot_l	elbow_flex_l	pro_sup_l
      0.00000000	      9.81991357	     -0.53432927	      1.20700287	     -0.53470850	      0.56910331	     -0.68777065	     78.56804993	    -16.93836959	      7.82725787	    106.06139784	      1.85112060	     24.25591380	      1.71785650	     -5.02059228	     79.00458822	     -9.97756852	      7.11583172	    105.68062761	      1.84447491	     23.03399612	     -0.95379465	     -5.02059228	    -20.60910218	     -0.46298202	     -1.65005989	      0.80765262	     -2.49821522	      0.32914835	    117.73318225	    108.18247339	     -1.68419159	     -0.33759476	     -2.56447430	    120.24502280	    104.11441113
      0.01000000	      9.89658666	     -0.47307702	      1.20886479	     -0.53483556	      0.56927439	     -0.68779794	     78.47153744	    -16.98245608	      7.89938301	    106.06183089	      1.85112816	     24.87273614	      2.28908791	     -5.36653466	     78.86076271	     -9.90993216	      7.08912229	    105.66957397	      1.84428199	     23.44874080	     -0.74094357	     -5.36653466	    -20.77644611	     -0.52414114	     -1.71463035	      0.89919035	     -2.46040688	      0.54664228	    118.00300410	    104.67561303	     -1.67753946	     -0.39237726	     -2.40928854	    120.56731362	    101.54662256
      0.02000000	      9.87411983	     -0.63771805	      1.22389703	     -0.53502853	      0.56940992	     -0.68789967	     78.39609293	    -16.94367844	      7.66241423	    105.99062148	      1.84988532	     24.47380449	      1.96072586	     -5.50389714	     78.95446240	     -9.96305183	      7.22057325	    105.64099260	      1.84378315	     23.06174511	     -0.96351359	     -5.50389714	    -20.85841255	     -0.28858561	     -1.62673252	      0.97204518	     -2.54215170	      0.34869483	    117.82260640	    108.09846034	     -1.60385858	     -0.31264373	     -2.55570352	    120.25192186	    104.27098572
      0.03000000	      9.99362307	     -0.83505815	      1.23724823	     -0.53526841	      0.56989251	     -0.68804262	     78.10072406	    -16.90468249	      7.37764077	    105.88742953	      1.84808428	     24.52957523	      1.91822932	     -5.71551150	     78.86221713	    -10.02240995	      7.41017459	    105.62247414	      1.84345994	     23.07134734	     -0.95807115	     -5.71551150	    -21.13209391	     -0.00860980	     -1.52781617	      1.08343059	     -2.65370203	      0.30773263	    117.88176925	    108.37788734	     -1.51376019	     -0.21200843	     -2.48361753	    120.29618766	    103.76700153
      0.04000000	     10.03378895	     -0.95421485	      1.23785633	     -0.53548371	      0.57016952	     -0.68804261	     77.96195790	    -16.86468526	      7.20765471	    105.81988357	      1.84690538	     24.52849231	      1.89580974	     -5.89889852	     78.83538007	    -10.06845656	      7.52312046	    105.58308608	      1.84277249	     23.05878827	     -0.97423349	     -5.89889852	    -21.32806709	      0.16670330	     -1.44942108	      1.19870604	     -2.68778349	      0.30298904	    118.01587042	    108.07688841	     -1.39205221	     -0.18294142	     -2.47933271	    120.26829591	    103.96705742
      0.05000000	      9.99286161	     -0.95298227	      1.22229006	     -0.53550190	      0.57016537	     -0.68808192	     78.01211206	    -16.87602431	      7.21022038	    105.80224446	      1.84659752	     24.51121494	      1.94340921	     -6.16953342	     78.87652673	    -10.08382330	      7.51053979	    105.58627559	      1.84282815	     23.04629510	     -0.97117944	     -6.16953342	    -21.39820713	      0.18646617	     -1.40934695	      1.27721427	     -2.76831931	      0.30657082	    118.04466447	    108.11132189	     -1.36779572	     -0.17081172	     -2.44816539	    120.31495723	    104.09520468
      0.06000000	      9.94134606	     -0.89954655	      1.22082989	     -0.53552924	      0.57013617	     -0.68814058	     78.09576286	    -16.92649601	      7.28197234	    105.80696458	      1.84667990	     24.69557381	      2.25643210	     -6.37996296	     78.90288871	    -10.04899482	      7.46899014	    105.57684066	      1.84266348	     23.19614192	     -0.79288827	     -6.37996296	    -21.46994064	      0.15116824	     -1.41894007	      1.40258999	     -2.84289992	      0.39971021	    118.11425502	    107.28045500	     -1.30116341	     -0.22489206	     -2.40802408	    120.44561362	    103.24152662
      0.07000000	      9.86788981	     -0.87845097	      1.22356265	     -0.53558158	      0.57013382	     -0.68818225	     78.18034841	    -16.95039115	      7.27760937	    105.77018939	      1.84603806	     24.51924102	      2.03258830	     -6.53536845	     78.96480376	    -10.03021127	      7.42851090	    105.52621733	      1.84177994	     23.04639406	     -0.96579855	     -6.53536845	    -21.54379330	      0.17679812	     -1.40658015	      1.53989816	     -2.90890533	      0.40272184	    118.15753007	    107.88335571	     -1.22887309	     -0.24300298	     -2.41061271	    120.36146433	    103.96925880
